HIERARCHY
ROOT Hips
{
	OFFSET -3.958830 18.904000 13.208200
	CHANNELS 6 Xposition Yposition Zposition Zrotation Yrotation Xrotation 
	JOINT LHipJoint
	{
		OFFSET 0.000000 0.000000 0.000000
		CHANNELS 3 Zrotation Yrotation Xrotation
		JOINT LeftUpLeg
		{
			OFFSET 1.800000 -1.400000 0.085000
			CHANNELS 3 Zrotation Yrotation Xrotation
			JOINT LeftLeg
			{
				OFFSET 2.215000 -6.000000 0.000000
				CHANNELS 3 Zrotation Yrotation Xrotation
				JOINT LeftFoot
				{
					OFFSET 2.500000 -6.900000 0.000000
					CHANNELS 3 Zrotation Yrotation Xrotation
					JOINT LeftToeBase
					{
						OFFSET 0.200000 -0.500000 1.950000
						CHANNELS 3 Zrotation Yrotation Xrotation
						End Site
						{
							OFFSET 0.000000 0.000000 0.000000
						}
					}
				}
			}
		}
	}
	JOINT RHipJoint
	{
		OFFSET 0.000000 0.000000 0.000000
		CHANNELS 3 Zrotation Yrotation Xrotation
		JOINT RightUpLeg
		{
			OFFSET -1.800000 -1.400000 0.085000
			CHANNELS 3 Zrotation Yrotation Xrotation
			JOINT RightLeg
			{
				OFFSET -2.215000 -6.000000 0.000000
				CHANNELS 3 Zrotation Yrotation Xrotation
				JOINT RightFoot
				{
					OFFSET -2.500000 -6.900000 0.000000
					CHANNELS 3 Zrotation Yrotation Xrotation
					JOINT RightToeBase
					{
						OFFSET -0.200000 -0.500000 1.950000
						CHANNELS 3 Zrotation Yrotation Xrotation
						End Site
						{
							OFFSET 0.000000 0.000000 0.000000
						}
					}
				}
			}
		}
	}
	JOINT LowerBack
	{
		OFFSET 0.000000 0.000000 0.000000
		CHANNELS 3 Zrotation Yrotation Xrotation
		JOINT Spine
		{
			OFFSET -0.087000 1.940000 -0.288900
			CHANNELS 3 Zrotation Yrotation Xrotation
			JOINT Spine1
			{
				OFFSET 0.000000 1.950000 0.060000
				CHANNELS 3 Zrotation Yrotation Xrotation
				JOINT Neck
				{
					OFFSET 0.000000 0.000000 0.000000
					CHANNELS 3 Zrotation Yrotation Xrotation
					JOINT Neck1
					{
						OFFSET 0.000000 1.600000 0.340000
						CHANNELS 3 Zrotation Yrotation Xrotation
						JOINT Head
						{
							OFFSET 0.000000 1.667000 -0.240000
							CHANNELS 3 Zrotation Yrotation Xrotation
							End Site
							{
								OFFSET 0.000000 0.000000 0.000000
							}
						}
					}
				}
				JOINT LeftShoulder
				{
					OFFSET 0.000000 0.000000 0.000000
					CHANNELS 3 Zrotation Yrotation Xrotation
					JOINT LeftArm
					{
						OFFSET 2.700000 1.550000 -0.730000
						CHANNELS 3 Zrotation Yrotation Xrotation
						JOINT LeftForeArm
						{
							OFFSET 5.450000 0.000000 0.000000
							CHANNELS 3 Zrotation Yrotation Xrotation
							JOINT LeftHand
							{
								OFFSET 3.450000 0.000000 0.000000
								CHANNELS 3 Zrotation Yrotation Xrotation
								JOINT LeftHandIndex1
								{
									OFFSET 0.750000 0.000000 0.000000
									CHANNELS 3 Zrotation Yrotation Xrotation
									End Site
									{
										OFFSET 0.000000 0.000000 0.000000
									}
								}
							}
						}
					}
				}
				JOINT RightShoulder
				{
					OFFSET 0.000000 0.000000 0.000000
					CHANNELS 3 Zrotation Yrotation Xrotation
					JOINT RightArm
					{
						OFFSET -2.700000 1.550000 -0.730000
						CHANNELS 3 Zrotation Yrotation Xrotation
						JOINT RightForeArm
						{
							OFFSET -5.450000 0.000000 0.000000
							CHANNELS 3 Zrotation Yrotation Xrotation
							JOINT RightHand
							{
								OFFSET -3.450000 0.000000 0.000000
								CHANNELS 3 Zrotation Yrotation Xrotation
								JOINT RightHandIndex1
								{
									OFFSET -0.750000 0.000000 0.000000
									CHANNELS 3 Zrotation Yrotation Xrotation
									End Site
									{
										OFFSET 0.000000 0.000000 0.000000
									}
								}
							}
						}
					}
				}
			}
		}
	}
}
MOTION
Frames: 14
Frame Time: 0.016667
22.340990 16.212770 -3.334490 1.190510 25.463469 -10.165914 -15.318360 12.963200 2.981843 8.498172 -1.646971 -3.610310 -16.100660 15.068191 33.894640 0.481977 8.550248 1.550977 0.781300 0.569180 0.586380 18.088720 -9.962960 4.017413 -18.997074 1.228491 -40.147546 3.469974 -3.001935 6.973134 -0.295967 -1.861283 3.399371 0.327690 -0.155230 0.253900 -3.682650 -1.191749 -8.749022 17.842724 -5.460363 24.322420 -0.865055 -3.523758 14.002784 5.442753 4.505568 -16.769909 7.744006 -16.566067 34.158347 4.471880 -14.110640 -29.308630 -22.825946 -28.599582 10.201457 -28.637704 -7.358067 -5.842966 23.886498 -23.586392 -6.361174 -3.247518 3.059365 0.705150 -0.289390 0.372840 0.186990 11.770086 30.861188 9.826726 22.968721 22.223646 -14.116366 -38.871086 19.128754 -11.175137 2.294481 -1.653803 0.009520 0.249900 -0.192620 -0.138930 
22.357200 16.166130 -3.257710 0.940761 24.324480 -9.538885 -15.276348 12.840391 3.001596 9.137665 -1.697582 -4.213571 -16.840493 15.816478 34.796744 0.452071 8.857648 1.421043 0.783130 0.568110 0.618110 18.148024 -9.953042 4.069032 -18.549144 1.803173 -41.322804 4.124494 -3.262594 8.665996 -0.299652 -1.869504 3.383019 0.349450 -0.160800 0.264740 -3.792018 -0.939006 -8.730308 19.080309 -5.519749 23.602020 -1.619001 -3.231698 12.643728 6.124917 5.063442 -15.627647 8.822341 -17.033220 33.581552 2.423930 -13.610530 -30.376740 -25.019546 -26.928202 9.536642 -29.421152 -7.261340 -5.619850 20.404419 -25.484602 -5.889127 -3.281731 2.971122 0.747130 -0.273220 0.386820 0.157650 12.624406 28.939170 9.136587 25.508453 21.884557 -13.455507 -38.167499 22.114117 -11.666783 2.174457 -1.548339 -0.021920 0.283110 -0.162790 -0.177850 
22.318350 16.118190 -3.156240 1.738541 23.160700 -9.980966 -15.354646 13.111019 3.127137 9.770333 -1.536160 -3.368621 -17.443596 16.572656 35.474961 0.570720 9.122320 1.311545 0.764530 0.518350 0.626590 18.037079 -9.806365 4.035064 -18.364101 2.176696 -40.975021 5.214659 -3.580182 10.612396 -0.324214 -1.898569 3.355272 0.281960 -0.236350 0.286440 -3.461962 -1.661032 -8.784709 17.885838 -5.325070 26.338017 -1.579189 -2.465892 9.632892 5.993278 5.334913 -15.231258 8.781196 -16.847105 36.105074 3.599000 -13.197630 -31.821470 -29.381080 -26.074144 9.518872 -27.186096 -5.164685 -5.790598 16.038274 -26.213289 -4.854159 -3.206223 3.051269 0.806030 -0.334460 0.429200 0.125470 16.984519 28.255511 8.749034 24.803903 19.935211 -13.778341 -36.532344 24.692541 -11.237310 2.181949 -1.460555 0.006700 0.202870 -0.160480 -0.201110 
22.283640 16.015320 -3.006930 3.475341 24.392824 -9.116233 -15.447649 13.072165 3.163784 9.164884 -2.087210 -3.579329 -17.309909 17.112530 37.666450 0.651573 9.474181 1.185882 0.737200 0.495110 0.631880 17.965216 -9.692781 4.033809 -19.795960 1.147490 -40.443050 6.068896 -3.704438 9.106252 -0.341549 -2.033798 3.308301 0.259090 -0.239860 0.294040 -3.211827 -1.828958 -8.842995 14.114913 -4.582954 25.619324 0.239103 -2.820546 8.875634 5.640172 6.132881 -15.286080 10.514438 -17.334239 37.302907 2.608890 -12.894630 -31.261130 -28.639094 -25.449524 9.317557 -30.235045 -5.412325 -5.883983 15.047993 -26.446284 -4.788629 -3.239170 2.978607 0.812260 -0.320530 0.441310 0.097870 17.205371 27.036195 8.711540 28.503203 19.004043 -13.305816 -36.455344 24.457303 -11.210302 2.162272 -1.410853 0.008750 0.207260 -0.139670 -0.212030 
22.248620 15.908160 -2.870450 3.216540 24.129944 -7.775128 -15.367943 12.791179 3.153906 10.501040 -2.401387 -4.851087 -18.013418 18.224536 39.332021 0.782890 9.897251 1.086111 0.723080 0.508700 0.578740 18.090866 -9.643526 4.151849 -19.611425 1.628264 -42.321722 6.688689 -3.908200 10.312788 -0.317578 -2.122069 3.311392 0.269340 -0.175320 0.280020 -3.487582 -1.385693 -8.869908 15.326700 -4.992670 23.595277 0.170280 -3.108308 8.150405 5.110353 5.400519 -14.197058 8.980867 -17.047783 35.515152 1.982570 -13.342430 -29.099870 -27.596132 -23.718552 8.656823 -32.517630 -5.741538 -5.345604 13.653845 -25.581196 -4.280533 -3.281020 2.958223 0.738120 -0.271810 0.399630 0.148000 17.234979 25.211418 8.104284 29.826219 18.169198 -12.333016 -33.961986 26.143201 -10.686091 2.126677 -1.403007 0.010080 0.230520 -0.158480 -0.166540 
22.185070 15.860860 -2.766910 3.793051 23.557016 -8.338670 -15.420337 13.023140 3.218087 11.030427 -2.433492 -4.354272 -17.400503 18.479750 40.610585 0.891808 10.004959 1.022771 0.770880 0.568610 0.620260 18.005689 -9.621491 4.051642 -18.810593 1.776324 -41.663500 5.989706 -3.789958 10.829012 -0.352663 -1.963386 3.355971 0.253630 -0.268140 0.285630 -3.275165 -1.862910 -8.882950 14.220272 -5.035518 25.516077 0.474441 -3.045674 7.585098 5.117440 4.826541 -14.367032 7.750441 -15.729536 38.214824 3.747900 -12.275290 -31.537570 -28.327904 -23.605424 8.621652 -33.426033 -5.687238 -5.366887 14.383386 -23.411175 -4.149421 -3.201802 3.007930 0.772070 -0.352020 0.473220 0.142130 18.041533 25.682955 8.258777 30.298390 17.682751 -12.559150 -32.819165 26.046725 -10.204982 2.180987 -1.387313 0.073620 0.173820 -0.205960 -0.163160 
22.157920 15.805830 -2.640900 4.042359 22.871819 -8.098709 -15.384738 13.007089 3.216039 11.560253 -2.288288 -3.584492 -17.718361 18.905059 40.817062 0.895069 10.205994 0.986207 0.712520 0.467610 0.595880 18.039559 -9.598634 4.090787 -18.723843 1.941572 -41.582917 6.327711 -3.660370 9.868923 -0.337362 -1.889895 3.387723 0.214770 -0.230200 0.262180 -3.366336 -1.826286 -8.904358 15.227661 -5.429721 26.055765 -0.881393 -2.748543 6.778074 5.123249 4.488247 -14.159693 6.900677 -15.753986 38.322812 5.423210 -12.752880 -32.750590 -29.124831 -23.114433 8.302753 -32.543249 -5.553197 -4.689619 13.650163 -20.304375 -3.569814 -3.234442 2.941712 0.830490 -0.365380 0.450290 0.127700 18.580833 25.296132 8.405489 30.915616 16.750491 -12.245869 -31.493092 25.156872 -9.362988 2.181496 -1.325184 0.007060 0.221410 -0.161410 -0.183750 
22.106450 15.762990 -2.559600 3.844751 22.083835 -7.780443 -15.374056 12.909047 3.198607 12.234013 -2.566735 -4.051239 -17.652289 19.212261 41.776122 0.885957 10.372695 0.918067 0.708980 0.483460 0.578770 18.073582 -9.426318 4.282420 -20.097612 2.159909 -42.486543 9.063224 -4.140883 10.678518 -0.376170 -2.151954 3.297607 0.226840 -0.230760 0.246210 -3.388541 -1.838605 -8.976625 16.320888 -5.610667 26.901832 -1.743388 -2.356752 6.923800 5.555076 4.647803 -14.567609 7.068262 -17.011693 38.691500 5.220900 -13.715500 -34.188070 -28.812113 -23.470380 8.014444 -32.332181 -6.369964 -4.313477 14.211023 -17.862559 -3.376315 -3.258704 2.874776 0.861140 -0.375550 0.466280 0.128220 17.210227 25.724885 9.001243 31.981452 16.146946 -11.312752 -30.866157 20.866937 -8.083243 2.211201 -1.323718 -0.008340 0.265580 -0.146660 -0.184100 
22.042720 15.705120 -2.414640 4.506586 21.474669 -7.657226 -15.396761 13.031230 3.309565 13.361726 -2.467326 -3.142445 -18.856462 19.894256 41.313576 0.976464 10.541953 0.855029 0.711480 0.459680 0.567190 18.030238 -9.474447 4.085487 -18.092299 2.232832 -42.087248 5.704394 -3.484382 9.824276 -0.334067 -1.768590 3.428502 0.197640 -0.249890 0.277300 -3.283583 -2.086483 -8.963951 15.269636 -5.561267 27.573846 -1.516895 -2.374633 6.931817 5.092416 3.792498 -14.865695 5.269379 -15.026135 39.186093 6.853930 -12.776210 -33.473860 -28.761405 -23.837134 8.014361 -31.193772 -6.623749 -3.574082 13.826910 -14.445949 -2.849755 -3.272000 2.968348 0.853880 -0.389380 0.458680 0.123880 18.063308 26.368444 9.496159 30.393808 14.683609 -10.955891 -28.660428 20.029690 -7.059374 2.251684 -1.361590 0.024660 0.184840 -0.147350 -0.181530 
21.992260 15.668180 -2.294150 4.400480 21.649448 -7.945069 -15.429156 13.192509 3.312041 14.269315 -2.553391 -2.254759 -18.432616 19.659026 41.136840 0.917709 10.567231 0.859490 0.686210 0.406690 0.603030 17.987730 -9.419811 4.045769 -18.000508 2.174691 -42.271715 5.259934 -3.626288 11.021960 -0.336175 -1.762505 3.430202 0.184620 -0.241100 0.262410 -3.173355 -2.455024 -8.945947 15.441161 -6.264899 28.428842 -1.854834 -2.912111 7.333439 5.434558 3.634082 -15.500107 4.814331 -14.485097 38.955857 5.598750 -12.093930 -34.227410 -28.470487 -24.650726 8.454992 -29.868880 -5.964315 -3.025956 13.909716 -11.721806 -2.499626 -3.315956 2.889675 0.898940 -0.390040 0.460820 0.099190 16.900538 27.209504 9.857786 29.233674 14.551670 -9.796204 -26.512506 17.296808 -5.748616 2.273733 -1.294974 -0.025690 0.234590 -0.125620 -0.216730 
21.929010 15.600080 -2.154610 4.808308 22.316316 -7.692032 -15.413868 13.024196 3.258604 15.280124 -2.829339 -1.367450 -18.913312 19.792377 40.847046 0.969226 10.583882 0.841348 0.713240 0.481740 0.574740 18.042302 -9.346157 4.161845 -19.926396 1.589858 -43.389529 7.497954 -4.519975 13.545359 -0.387458 -2.258263 3.241567 0.206660 -0.252350 0.282410 -3.261503 -2.243912 -8.951425 15.453754 -6.688673 28.429384 -3.013038 -3.261496 8.942881 5.576814 4.136493 -16.148352 5.853022 -15.112396 37.232372 5.873640 -12.323300 -34.183830 -25.582048 -25.742056 8.786496 -28.751959 -6.558097 -2.857670 14.123938 -10.924834 -2.376954 -3.331878 2.938160 0.852320 -0.378900 0.474650 0.118410 13.507043 27.702001 10.682098 31.024150 13.963995 -8.701251 -26.571500 14.031412 -5.132721 2.309944 -1.374568 0.029650 0.199740 -0.146210 -0.181400 
21.837620 15.552150 -1.992410 4.858626 23.016445 -8.304696 -15.444689 13.156496 3.223703 16.700691 -3.223519 -0.524870 -17.372237 19.619070 42.310836 0.967238 10.733285 0.817726 0.700030 0.450330 0.596630 18.006149 -9.321311 4.135851 -20.180955 1.474532 -43.693756 7.678879 -5.117289 16.726712 -0.406955 -2.522430 3.156266 0.201140 -0.249140 0.238300 -3.171988 -2.517355 -8.928658 15.276703 -6.972259 29.475703 -2.974450 -3.454784 10.011828 5.574859 3.425878 -17.111563 4.389877 -15.148936 36.741541 5.630040 -12.743520 -34.731110 -23.491711 -26.680496 8.948128 -27.632993 -6.757504 -2.595971 13.754055 -9.751618 -2.197108 -3.329193 2.864665 0.877600 -0.399320 0.468730 0.118480 11.302772 29.130564 11.848555 30.609541 12.581242 -7.920568 -26.541477 8.211993 -3.768652 2.421405 -1.383304 -0.012950 0.251790 -0.152320 -0.196120 
21.775310 15.507280 -1.822590 4.565018 23.113737 -8.293380 -15.429966 13.112781 3.131827 18.125412 -3.319964 0.653275 -17.052031 19.448507 41.856161 0.972649 10.716161 0.815885 0.699550 0.440140 0.568450 18.057207 -9.171495 4.292397 -21.395656 1.462251 -45.054907 9.548075 -6.338782 20.630073 -0.452293 -3.194420 2.896649 0.191670 -0.241940 0.267250 -3.241904 -2.614706 -8.936849 16.211357 -7.974317 29.709704 -3.638470 -4.053551 10.394721 5.474273 2.560701 -16.987289 2.769078 -14.743795 35.316035 6.230700 -13.119650 -34.085040 -22.252775 -26.162905 8.824231 -25.844347 -6.488122 -2.126540 13.443411 -8.149892 -1.922766 -3.369773 2.925876 0.843640 -0.389660 0.444700 0.119100 10.215591 28.767699 12.160522 29.053058 11.595280 -7.202170 -25.428912 6.675128 -3.122414 2.461473 -1.414668 0.016500 0.200660 -0.141510 -0.179000 
21.698570 15.484400 -1.652170 4.107438 22.594723 -9.253090 -15.378660 13.030503 3.045978 20.010938 -3.127386 3.045999 -17.332478 19.231307 39.951459 1.001563 10.553213 0.905451 0.737360 0.533260 0.563950 18.127898 -9.171199 4.351909 -21.867301 1.671541 -45.012039 11.787586 -7.580121 23.956745 -0.527398 -3.849250 2.689241 0.235290 -0.232510 0.237860 -3.406223 -2.423012 -8.898111 17.342152 -8.989969 29.482805 -5.136150 -4.612144 12.831356 5.794226 1.847951 -17.323923 1.569211 -14.116937 34.977053 5.420110 -13.165790 -33.120980 -19.428955 -26.457190 9.155224 -23.825959 -6.655421 -1.366397 13.035064 -4.691007 -1.415308 -3.412518 2.898782 0.783840 -0.380590 0.450020 0.163100 6.911086 29.240856 12.806298 28.769768 12.042654 -5.331551 -22.916764 2.885668 -1.995468 2.547576 -1.416493 0.043830 0.232830 -0.192030 -0.135130 
